<?xml version="1.0" encoding="UTF-8" standalone="no"?>
<svg version="1.1" xmlns="http://www.w3.org/2000/svg" xmlns:xlink="http://www.w3.org/1999/xlink" width="650" height="170">
	<defs>
		<clipPath id="clip_dp_001" clipPathUnits="userSpaceOnUse" clip-rule="nonzero">
			<path d="M 0,0 L 650,0 L 650,170 L 0,170 Z " clip-rule="nonzero"/>
		</clipPath>
	</defs>
	<g id="dp_dp001" clip-path="url(#clip_dp_001)">
		<g id="clip">
			<path id="dp_path002" fill="#116b28" fill-rule="evenodd" stroke="#f7ffe8" stroke-width="2.26667" d="M 193.199,9.82133 L 249.001,9.82133 L 249.001,34.3387 L 232.876,34.3387 L 232.876,117.143 L 209.179,117.143 L 209.179,34.3387 L 193.199,34.3387 Z "/>
			<path id="dp_path003" fill="#116b28" fill-rule="evenodd" stroke="#f7ffe8" stroke-width="2.26667" d="M 262.099,9.82133 L 289.34,9.82133 C 300.353,9.82133 309.048,12.7587 315.437,18.656 C 321.812,24.556 325,32.5693 325,42.6933 C 325,47.8933 323.789,52.916 321.379,57.772 C 318.952,62.6147 312.739,67.5373 308.1,70.0067 L 329.48,117.143 L 304.78,117.143 L 285.876,79.2707 L 285.48,79.2707 L 285.48,117.143 L 262.099,117.143 Z M 285.48,30.552 L 285.48,56.044 C 295.821,55.8267 300.997,52.0507 300.997,44.7107 C 300.997,39.7173 299.799,36.164 297.416,34.0093 C 295.019,31.8693 291.039,30.716 285.48,30.552 Z "/>
			<path id="dp_path004" fill="#116b28" fill-rule="evenodd" stroke="#f7ffe8" stroke-width="2.26667" d="M 340.456,9.82267 L 363.852,9.82267 L 363.852,117.143 L 340.456,117.143 Z "/>
			<path id="dp_path005" fill="#116b28" fill-rule="evenodd" stroke="#f7ffe8" stroke-width="2.26667" d="M 373.281,54.7467 L 411.437,54.7467 L 411.437,72.2187 L 373.281,72.2187 Z "/>
			<path id="dp_path006" fill="#116b28" fill-rule="evenodd" stroke="#f7ffe8" stroke-width="2.26667" d="M 421.379,9.82133 L 450.319,9.82133 C 460.517,9.82133 468.696,12.84 474.861,18.904 C 481.041,24.9547 484.136,32.9413 484.136,42.8587 C 484.136,53.3147 481.001,61.4933 474.756,67.42 C 468.499,73.3467 459.844,76.296 448.779,76.296 L 444.76,76.296 L 444.76,117.143 L 421.379,117.143 Z M 444.76,30.4027 L 444.76,55.716 C 450.017,55.62 453.889,54.5627 456.381,52.5867 C 458.884,50.596 460.12,47.468 460.12,43.176 C 460.12,38.5653 458.921,35.3147 456.499,33.4053 C 454.076,31.5133 450.161,30.4987 444.76,30.4027 Z "/>
			<path id="dp_path007" fill="#116b28" fill-rule="evenodd" stroke="#f7ffe8" stroke-width="2.26667" d="M 557.468,117.143 L 533.153,117.143 L 528.433,99.2067 L 505.048,99.2067 L 500.415,117.143 L 476.571,117.143 L 503.895,9.82133 L 530.135,9.82133 Z M 517.016,54.3613 L 523.328,79.3667 L 510.153,79.3667 Z "/>
			<path id="dp_path008" fill="#116b28" fill-rule="evenodd" stroke="#f7ffe8" stroke-width="2.26667" d="M 569.069,9.89733 L 592.451,9.89733 L 592.451,47.6907 L 592.847,47.6907 L 613.039,9.74667 L 640.216,9.89733 L 610.721,64.7227 L 640.216,117.217 L 612.751,117.217 L 592.847,83.6067 L 592.451,83.6787 L 592.451,117.217 L 569.069,117.217 Z "/>
			<path id="dp_path009" fill="black" fill-rule="evenodd" stroke="#f7ffe8" stroke-width="1.33333" d="M 208.241,125.788 L 221.685,125.788 L 226.9,146.379 L 232.08,125.788 L 245.513,125.788 L 245.513,159.625 L 237.151,159.625 L 237.151,133.82 L 230.655,159.625 L 223.091,159.625 L 216.605,133.82 L 216.605,159.625 L 208.241,159.625 Z "/>
			<path id="dp_path010" fill="black" fill-rule="evenodd" stroke="#f7ffe8" stroke-width="1.33333" d="M 272.341,154.032 L 260.741,154.032 L 259.115,159.625 L 248.668,159.625 L 261.109,125.788 L 272.315,125.788 L 284.707,159.625 L 273.995,159.625 Z M 270.215,146.707 L 266.571,134.553 L 262.956,146.707 Z "/>
			<path id="dp_path011" fill="black" fill-rule="evenodd" stroke="#f7ffe8" stroke-width="1.33333" d="M 309.179,145.8 L 318.16,148.568 C 317.559,151.136 316.611,153.283 315.316,155.005 C 314.02,156.724 312.417,158.025 310.497,158.901 C 308.579,159.777 306.139,160.216 303.173,160.216 C 299.579,160.216 296.64,159.68 294.359,158.612 C 292.08,157.541 290.117,155.661 288.459,152.968 C 286.805,150.273 285.977,146.825 285.977,142.628 C 285.977,137.023 287.433,132.721 290.344,129.712 C 293.257,126.704 297.377,125.199 302.704,125.199 C 306.873,125.199 310.151,126.06 312.537,127.783 C 314.924,129.507 316.692,132.151 317.852,135.724 L 308.832,137.764 C 308.517,136.74 308.185,135.987 307.839,135.515 C 307.267,134.719 306.565,134.109 305.737,133.68 C 304.909,133.248 303.984,133.036 302.959,133.036 C 300.641,133.036 298.865,133.989 297.627,135.901 C 296.693,137.315 296.228,139.536 296.228,142.568 C 296.228,146.321 296.784,148.895 297.893,150.291 C 299.007,151.68 300.568,152.377 302.58,152.377 C 304.532,152.377 306.007,151.813 307.005,150.692 C 308.004,149.569 308.727,147.936 309.179,145.8 Z "/>
			<path id="dp_path012" fill="black" fill-rule="evenodd" stroke="#f7ffe8" stroke-width="1.33333" d="M 323.227,125.788 L 333.441,125.788 L 333.441,137.647 L 344.656,137.647 L 344.656,125.788 L 354.948,125.788 L 354.948,159.625 L 344.656,159.625 L 344.656,145.957 L 333.441,145.957 L 333.441,159.625 L 323.227,159.625 Z "/>
			<path id="dp_path013" fill="black" fill-rule="evenodd" stroke="#f7ffe8" stroke-width="1.33333" d="M 362.055,125.788 L 372.308,125.788 L 372.308,159.625 L 362.055,159.625 Z "/>
			<path id="dp_path014" fill="black" fill-rule="evenodd" stroke="#f7ffe8" stroke-width="1.33333" d="M 379.755,125.788 L 389.321,125.788 L 401.801,144.52 L 401.801,125.788 L 411.439,125.788 L 411.439,159.625 L 401.801,159.625 L 389.392,140.999 L 389.392,159.625 L 379.755,159.625 Z "/>
			<path id="dp_path015" fill="black" fill-rule="evenodd" stroke="#f7ffe8" stroke-width="1.33333" d="M 418.12,125.788 L 445.565,125.788 L 445.565,132.996 L 428.373,132.996 L 428.373,138.395 L 444.332,138.395 L 444.332,145.287 L 428.373,145.287 L 428.373,151.943 L 446.065,151.943 L 446.065,159.625 L 418.12,159.625 Z "/>
			<path id="dp_path016" fill="black" fill-rule="evenodd" stroke="#f7ffe8" stroke-width="1.33333" d="M 451.703,159.625 L 451.703,125.788 L 468.749,125.788 C 471.909,125.788 474.328,126.065 475.996,126.619 C 477.669,127.171 479.015,128.199 480.04,129.697 C 481.061,131.197 481.575,133.027 481.575,135.175 C 481.575,137.055 481.185,138.675 480.401,140.032 C 479.62,141.392 478.541,142.499 477.173,143.341 C 476.301,143.881 475.101,144.325 473.583,144.68 C 474.801,145.099 475.688,145.511 476.243,145.929 C 476.621,146.204 477.165,146.799 477.876,147.709 C 478.595,148.619 479.068,149.32 479.312,149.813 L 484.273,159.625 L 472.716,159.625 L 467.249,149.272 C 466.556,147.935 465.941,147.063 465.401,146.661 C 464.667,146.137 463.828,145.877 462.895,145.877 L 461.995,145.877 L 461.995,159.625 Z M 461.995,139.496 L 466.291,139.496 C 466.755,139.496 467.656,139.343 468.989,139.031 C 469.663,138.895 470.215,138.54 470.643,137.968 C 471.069,137.401 471.283,136.743 471.283,136.004 C 471.283,134.908 470.943,134.069 470.268,133.483 C 469.595,132.893 468.329,132.604 466.468,132.604 L 461.995,132.604 Z "/>
			<path id="dp_path017" fill="black" fill-rule="evenodd" stroke="#f7ffe8" stroke-width="1.33333" d="M 484.248,125.788 L 495.617,125.788 L 502.287,137.144 L 508.981,125.788 L 520.287,125.788 L 507.413,145.453 L 507.413,159.625 L 497.161,159.625 L 497.161,145.453 Z "/>
			<path id="dp_path018" fill="black" fill-rule="evenodd" stroke="white" stroke-width="1.33333" d="M 515.025,155.303 L 519.635,155.303 L 519.635,158.851 C 519.635,160.157 519.364,161.188 518.82,161.944 C 518.276,162.699 517.347,163.367 516.032,163.945 L 515.025,162.063 C 515.847,161.681 516.408,161.304 516.716,160.925 C 517.025,160.548 517.195,160.103 517.231,159.588 L 515.025,159.588 Z "/>
			<path id="dp_path019" fill="black" fill-rule="evenodd" stroke="#f7ffe8" stroke-width="1.33333" d="M 544.517,125.788 L 553.461,125.788 L 553.461,159.625 L 544.517,159.625 Z "/>
			<path id="dp_path020" fill="black" fill-rule="evenodd" stroke="#f7ffe8" stroke-width="1.33333" d="M 559.999,125.788 L 568.344,125.788 L 579.232,144.509 L 579.232,125.788 L 587.672,125.788 L 587.672,159.625 L 579.232,159.625 L 568.4,141.005 L 568.4,159.625 L 559.999,159.625 Z "/>
			<path id="dp_path021" fill="black" fill-rule="evenodd" stroke="#f7ffe8" stroke-width="1.33333" d="M 612.865,145.8 L 620.691,148.568 C 620.165,151.136 619.337,153.283 618.209,155.005 C 617.077,156.724 615.676,158.025 613.999,158.901 C 612.325,159.777 610.196,160.216 607.604,160.216 C 604.465,160.216 601.904,159.68 599.911,158.612 C 597.923,157.541 596.204,155.661 594.757,152.968 C 593.312,150.273 592.592,146.825 592.592,142.628 C 592.592,137.023 593.864,132.721 596.404,129.712 C 598.947,126.704 602.544,125.199 607.196,125.199 C 610.836,125.199 613.696,126.06 615.779,127.783 C 617.861,129.507 619.411,132.151 620.419,135.724 L 612.519,137.764 C 612.244,136.74 611.956,135.987 611.651,135.515 C 611.156,134.719 610.545,134.109 609.82,133.68 C 609.099,133.248 608.296,133.036 607.399,133.036 C 605.38,133.036 603.831,133.989 602.756,135.901 C 601.943,137.315 601.533,139.536 601.533,142.568 C 601.533,146.321 602.019,148.895 602.991,150.291 C 603.965,151.68 605.331,152.377 607.092,152.377 C 608.799,152.377 610.091,151.813 610.965,150.692 C 611.837,149.569 612.472,147.936 612.865,145.8 Z "/>
			<path id="dp_path022" fill="black" fill-rule="evenodd" stroke="white" stroke-width="1.33333" d="M 626.291,155.303 L 630.901,155.303 L 630.901,159.624 L 626.291,159.624 Z "/>
			<path id="dp_path023" fill="#116b28" fill-rule="evenodd" stroke="#f7ffe8" stroke-width="2.26667" d="M 93.0173,158.459 L 5.096,8.14933 L 180.937,8.14933 Z "/>
			<path id="dp_path024" fill="#f7ffe8" fill-rule="evenodd" stroke="black" stroke-width="3.06667" d="M 90.8347,13.1827 L 95.2,13.1827 L 98.5,20.664 L 102.097,21.38 L 108.004,15.7293 L 112.037,17.4 L 112.229,25.576 L 115.28,27.6147 L 122.896,24.6547 L 125.985,27.7413 L 123.039,35.3693 L 125.079,38.42 L 133.248,38.6 L 134.923,42.6347 L 129.285,48.556 L 130.005,52.1547 L 137.485,55.448 L 137.491,59.8173 L 130.021,63.1307 L 129.311,66.732 L 134.964,72.6373 L 133.3,76.6773 L 125.132,76.88 L 123.101,79.936 L 126.069,87.5547 L 122.988,90.652 L 115.363,87.7133 L 112.319,89.7587 L 112.151,97.936 L 108.121,99.6173 L 102.199,93.984 L 98.604,94.7093 L 95.324,102.2 L 90.9587,102.212 L 87.6373,94.74 L 84.0387,94.0347 L 78.148,99.7013 L 74.1093,98.0413 L 73.8947,89.8667 L 70.8387,87.8373 L 63.2307,90.8187 L 60.1333,87.74 L 63.0587,80.1027 L 61.0093,77.0587 L 52.8413,76.9013 L 51.1547,72.8707 L 56.7747,66.9347 L 56.0453,63.3373 L 48.556,60.0653 L 48.5387,55.696 L 55.9987,52.3613 L 56.6987,48.7587 L 51.0293,42.8693 L 52.6813,38.8253 L 60.8493,38.6 L 62.872,35.5387 L 59.8827,27.9267 L 62.9547,24.8213 L 70.588,27.7387 L 73.6267,25.684 L 73.772,17.508 L 77.796,15.8147 L 83.7347,21.4307 L 87.328,20.696 Z M 123.071,57.6947 C 123.071,41.0813 109.615,27.6133 93.0173,27.6133 C 76.42,27.6133 62.964,41.0813 62.964,57.6947 C 62.964,74.308 76.42,87.776 93.0173,87.776 C 109.615,87.776 123.071,74.308 123.071,57.6947 Z "/>
			<path id="dp_path025" fill="#f7ffe8" fill-rule="evenodd" stroke="#f7ffe8" stroke-width="3.33333" d="M 93.016,29.0547 C 108.82,29.0547 121.631,41.8773 121.631,57.6947 C 121.631,73.512 108.82,86.3347 93.016,86.3347 C 77.212,86.3347 64.4013,73.512 64.4013,57.6947 C 64.4013,41.8773 77.212,29.0547 93.016,29.0547 Z "/>
			<path id="dp_path026" fill="#f7ffe8" fill-rule="evenodd" stroke="black" stroke-width="2.93333" d="M 93.016,34.1773 C 105.992,34.1773 116.512,44.7067 116.512,57.6947 C 116.512,70.6827 105.992,81.212 93.016,81.212 C 80.04,81.212 69.52,70.6827 69.52,57.6947 C 69.52,44.7067 80.04,34.1773 93.016,34.1773 Z "/>
			<path id="dp_path027" fill="black" fill-rule="evenodd" stroke="black" stroke-width="3.33333" d="M 93.0173,44.1933 C 100.467,44.1933 106.507,50.2387 106.507,57.6947 C 106.507,65.1507 100.467,71.196 93.0173,71.196 C 85.568,71.196 79.528,65.1507 79.528,57.6947 C 79.528,50.2387 85.568,44.1933 93.0173,44.1933 Z "/>
		</g>
	</g>
</svg>